<svg width="51" height="51" viewBox="0 0 51 51" fill="none" xmlns="http://www.w3.org/2000/svg">
<path d="M25.6816 1.59443L25.621 9.56295L9.68399 9.44189L9.56293 25.3789L1.59441 25.3184C1.49393 38.5461 12.0906 49.3051 25.3184 49.4056C38.5461 49.506 49.305 38.9093 49.4055 25.6816C49.506 12.4538 38.9093 1.69491 25.6816 1.59443Z" fill="#2A5F9E"/>
<path d="M25.5 1.59375C21.7547 1.59375 18.2484 2.47031 15.0609 3.98438V8.76562H8.76562V15.0609H3.98438C2.47031 18.2484 1.59375 21.7547 1.59375 25.5H11.1562V13.5469L20.7188 25.5H25.5V19.5234L18.8063 11.1562H25.5V1.59375Z" fill="white"/>
<path d="M12.2719 11.1562L23.9062 25.5H25.5V21.5953L17.0531 11.1562H12.2719Z" fill="#ED4C5C"/>
<path d="M25.5 3.98438H15.0609C10.2797 6.29531 6.29531 10.2797 3.98438 15.0609V25.5H8.76562V8.76562H25.5V3.98438Z" fill="#ED4C5C"/>
<path d="M6.375 28.4484L8.12812 26.2969L7.57031 29.0859L10.3594 29.1656L7.88906 30.4406L9.5625 32.6719L7.09219 31.5562L6.375 34.2656L5.65781 31.5562L3.1875 32.6719L4.86094 30.4406L2.39062 29.1656L5.17969 29.0859L4.62188 26.2969L6.375 28.4484ZM41.4375 16.0969L42.8719 14.3438L42.3938 16.575L44.625 16.6547L42.6328 17.6906L43.9875 19.4437L41.9953 18.4875L41.4375 20.7188L40.8797 18.4875L38.8875 19.4437L40.2422 17.6906L38.25 16.6547L40.4812 16.575L40.0031 14.3438L41.4375 16.0969ZM41.4375 32.0344L42.8719 30.2812L42.3938 32.5125L44.625 32.5922L42.6328 33.6281L43.9875 35.3813L41.9953 34.425L41.4375 36.6562L40.8797 34.425L38.8875 35.3813L40.2422 33.6281L38.25 32.5922L40.4812 32.5125L40.0031 30.2812L41.4375 32.0344ZM33.4688 20.8781L34.9031 19.125L34.425 21.3562L36.6562 21.4359L34.6641 22.4719L36.0188 24.225L34.0266 23.2688L33.4688 25.5L32.9109 23.2688L30.9187 24.225L32.2734 22.4719L30.2812 21.4359L32.5125 21.3562L32.0344 19.125L33.4688 20.8781Z" fill="white"/>
</svg>
